<?xml version="1.0" standalone="no"?>
<!DOCTYPE svg PUBLIC "-//W3C//DTD SVG 20010904//EN"
 "http://www.w3.org/TR/2001/REC-SVG-20010904/DTD/svg10.dtd">
<svg version="1.0" xmlns="http://www.w3.org/2000/svg"
 width="1024.000000pt" height="1024.000000pt" viewBox="0 0 1024.000000 1024.000000"
 preserveAspectRatio="xMidYMid meet">
<metadata>
Created by potrace 1.16, written by Peter Selinger 2001-2019
</metadata>
<g transform="translate(0.000000,1024.000000) scale(0.100000,-0.100000)"
fill="#000000" stroke="none">
<path d="M640 10080 l0 -160 -160 0 -160 0 0 -160 0 -160 -160 0 -160 0 0
-4480 0 -4480 160 0 160 0 0 -160 0 -160 160 0 160 0 0 -160 0 -160 4480 0
4480 0 0 160 0 160 160 0 160 0 0 160 0 160 160 0 160 0 0 4480 0 4480 -160 0
-160 0 0 160 0 160 -160 0 -160 0 0 160 0 160 -4480 0 -4480 0 0 -160z m2240
-4960 l0 -4480 -640 0 -640 0 0 3360 0 3360 -480 0 -480 0 0 640 0 640 160 0
160 0 0 160 0 160 160 0 160 0 0 160 0 160 160 0 160 0 0 160 0 160 640 0 640
0 0 -4480z m3200 4320 l0 -160 160 0 160 0 0 -480 0 -480 -320 0 -320 0 0 160
0 160 -480 0 -480 0 0 -160 0 -160 -160 0 -160 0 0 -320 0 -320 160 0 160 0 0
-160 0 -160 640 0 640 0 0 -160 0 -160 160 0 160 0 0 -3040 0 -3040 -160 0
-160 0 0 -160 0 -160 -1280 0 -1280 0 0 160 0 160 -160 0 -160 0 0 4160 0
4160 160 0 160 0 0 160 0 160 1280 0 1280 0 0 -160z m3840 -160 l0 -320 -640
0 -640 0 0 -160 0 -160 -160 0 -160 0 0 -160 0 -160 -480 0 -480 0 0 160 0
160 -160 0 -160 0 0 480 0 480 1440 0 1440 0 0 -320z m-1280 -1920 l0 -320
-800 0 -800 0 0 320 0 320 800 0 800 0 0 -320z m960 -480 l0 -800 160 0 160 0
0 -320 0 -320 -1440 0 -1440 0 0 320 0 320 960 0 960 0 0 800 0 800 320 0 320
0 0 -800z m-2240 -2400 l0 -320 160 0 160 0 0 160 0 160 160 0 160 0 0 160 0
160 320 0 320 0 0 -160 0 -160 160 0 160 0 0 -320 0 -320 -160 0 -160 0 0 320
0 320 -160 0 -160 0 0 -160 0 -160 -160 0 -160 0 0 -160 0 -160 -320 0 -320 0
0 160 0 160 -160 0 -160 0 0 320 0 320 160 0 160 0 0 -320z m960 -2720 l0
-1120 -160 0 -160 0 0 -160 0 -160 -320 0 -320 0 0 160 0 160 -160 0 -160 0 0
160 0 160 160 0 160 0 0 -160 0 -160 320 0 320 0 0 1120 0 1120 160 0 160 0 0
-1120z m1280 960 l0 -160 160 0 160 0 0 -160 0 -160 -160 0 -160 0 0 160 0
160 -320 0 -320 0 0 -320 0 -320 320 0 320 0 0 -160 0 -160 160 0 160 0 0
-480 0 -480 -160 0 -160 0 0 -160 0 -160 -320 0 -320 0 0 160 0 160 -160 0
-160 0 0 160 0 160 160 0 160 0 0 -160 0 -160 320 0 320 0 0 480 0 480 -320 0
-320 0 0 160 0 160 -160 0 -160 0 0 320 0 320 160 0 160 0 0 160 0 160 320 0
320 0 0 -160z"/>
<path d="M4480 5920 l0 -160 -160 0 -160 0 0 -1760 0 -1760 160 0 160 0 0
-160 0 -160 320 0 320 0 0 160 0 160 160 0 160 0 0 1760 0 1760 -160 0 -160 0
0 160 0 160 -320 0 -320 0 0 -160z"/>
<path d="M7680 8800 l0 -160 160 0 160 0 0 160 0 160 -160 0 -160 0 0 -160z"/>
</g>
</svg>
