<?xml version="1.0" standalone="no"?>
<!DOCTYPE svg PUBLIC "-//W3C//DTD SVG 20010904//EN"
 "http://www.w3.org/TR/2001/REC-SVG-20010904/DTD/svg10.dtd">
<svg version="1.0" xmlns="http://www.w3.org/2000/svg"
 width="1024.000000pt" height="256.000000pt" viewBox="0 0 1024.000000 256.000000"
 preserveAspectRatio="xMidYMid meet">
<metadata>
Created by potrace 1.16, written by Peter Selinger 2001-2019
</metadata>
<g transform="translate(0.000000,256.000000) scale(0.100000,-0.100000)"
fill="#000000" stroke="none">
<path d="M320 2480 l0 -80 -80 0 -80 0 0 -80 0 -80 -80 0 -80 0 0 -960 0 -960
80 0 80 0 0 -80 0 -80 80 0 80 0 0 -80 0 -80 3040 0 3040 0 0 80 0 80 -80 0
-80 0 0 80 0 80 -80 0 -80 0 0 80 0 80 -80 0 -80 0 0 320 0 320 240 0 240 0 0
-160 0 -160 80 0 80 0 0 -80 0 -80 240 0 240 0 0 80 0 80 80 0 80 0 0 800 0
800 320 0 320 0 0 -960 0 -960 -80 0 -80 0 0 -80 0 -80 -80 0 -80 0 0 -80 0
-80 -80 0 -80 0 0 -80 0 -80 480 0 480 0 0 80 0 80 -80 0 -80 0 0 160 0 160
160 0 160 0 0 -80 0 -80 400 0 400 0 0 80 0 80 80 0 80 0 0 160 0 160 -80 0
-80 0 0 80 0 80 -400 0 -400 0 0 80 0 80 -80 0 -80 0 0 80 0 80 -80 0 -80 0 0
400 0 400 80 0 80 0 0 80 0 80 80 0 80 0 0 80 0 80 720 0 720 0 0 -80 0 -80
80 0 80 0 0 -160 0 -160 -160 0 -160 0 0 80 0 80 -400 0 -400 0 0 -80 0 -80
-80 0 -80 0 0 -240 0 -240 80 0 80 0 0 -80 0 -80 400 0 400 0 0 -80 0 -80 80
0 80 0 0 -80 0 -80 80 0 80 0 0 -320 0 -320 -80 0 -80 0 0 -80 0 -80 -80 0
-80 0 0 -80 0 -80 80 0 80 0 0 80 0 80 80 0 80 0 0 80 0 80 80 0 80 0 0 960 0
960 -80 0 -80 0 0 80 0 80 -80 0 -80 0 0 80 0 80 -4800 0 -4800 0 0 -80z m960
-1200 l0 -1120 -320 0 -320 0 0 560 0 560 -240 0 -240 0 0 320 0 320 80 0 80
0 0 80 0 80 80 0 80 0 0 80 0 80 80 0 80 0 0 80 0 80 320 0 320 0 0 -1120z
m1600 1040 l0 -80 80 0 80 0 0 -240 0 -240 -160 0 -160 0 0 80 0 80 -240 0
-240 0 0 -80 0 -80 -80 0 -80 0 0 -160 0 -160 80 0 80 0 0 -80 0 -80 320 0
320 0 0 -80 0 -80 80 0 80 0 0 -400 0 -400 -80 0 -80 0 0 -80 0 -80 -640 0
-640 0 0 80 0 80 -80 0 -80 0 0 960 0 960 80 0 80 0 0 80 0 80 640 0 640 0 0
-80z m1920 -400 l0 -160 80 0 80 0 0 -160 0 -160 -80 0 -80 0 0 -480 0 -480
-160 0 -160 0 0 480 0 480 -240 0 -240 0 0 160 0 160 240 0 240 0 0 160 0 160
160 0 160 0 0 -160z m-1280 -320 l0 -320 80 0 80 0 0 -80 0 -80 80 0 80 0 0
-240 0 -240 -80 0 -80 0 0 -80 0 -80 -240 0 -240 0 0 720 0 720 160 0 160 0 0
-320z m1920 -240 l0 -80 -160 0 -160 0 0 -80 0 -80 80 0 80 0 0 -80 0 -80 80
0 80 0 0 -160 0 -160 -80 0 -80 0 0 -80 0 -80 -160 0 -160 0 0 80 0 80 160 0
160 0 0 80 0 80 -80 0 -80 0 0 80 0 80 -80 0 -80 0 0 160 0 160 80 0 80 0 0
80 0 80 160 0 160 0 0 -80z m-1120 -480 l0 -400 -160 0 -160 0 0 400 0 400
160 0 160 0 0 -400z"/>
<path d="M2080 720 l0 -240 160 0 160 0 0 240 0 240 -160 0 -160 0 0 -240z"/>
<path d="M3520 880 l0 -80 80 0 80 0 0 80 0 80 -80 0 -80 0 0 -80z"/>
</g>
</svg>
