<?xml version="1.0" standalone="no"?>
<!DOCTYPE svg PUBLIC "-//W3C//DTD SVG 20010904//EN"
 "http://www.w3.org/TR/2001/REC-SVG-20010904/DTD/svg10.dtd">
<svg version="1.0" xmlns="http://www.w3.org/2000/svg"
 width="1024.000000pt" height="1024.000000pt" viewBox="0 0 1024.000000 1024.000000"
 preserveAspectRatio="xMidYMid meet">
<metadata>
Created by potrace 1.16, written by Peter Selinger 2001-2019
</metadata>
<g transform="translate(0.000000,1024.000000) scale(0.100000,-0.100000)"
fill="#000000" stroke="none">
<path d="M640 10080 l0 -160 -160 0 -160 0 0 -160 0 -160 -160 0 -160 0 0
-4480 0 -4480 160 0 160 0 0 -160 0 -160 160 0 160 0 0 -160 0 -160 4480 0
4480 0 0 160 0 160 160 0 160 0 0 160 0 160 160 0 160 0 0 4480 0 4480 -160 0
-160 0 0 160 0 160 -160 0 -160 0 0 160 0 160 -4480 0 -4480 0 0 -160z m2240
-2400 l0 -2240 -640 0 -640 0 0 1120 0 1120 -480 0 -480 0 0 640 0 640 160 0
160 0 0 160 0 160 160 0 160 0 0 160 0 160 160 0 160 0 0 160 0 160 640 0 640
0 0 -2240z m3200 2080 l0 -160 160 0 160 0 0 -480 0 -480 -320 0 -320 0 0 160
0 160 -480 0 -480 0 0 -160 0 -160 -160 0 -160 0 0 -320 0 -320 160 0 160 0 0
-160 0 -160 640 0 640 0 0 -160 0 -160 160 0 160 0 0 -800 0 -800 -160 0 -160
0 0 -160 0 -160 -1280 0 -1280 0 0 160 0 160 -160 0 -160 0 0 1920 0 1920 160
0 160 0 0 160 0 160 1280 0 1280 0 0 -160z m3520 -160 l0 -320 -640 0 -640 0
0 -160 0 -160 -160 0 -160 0 0 -160 0 -160 -480 0 -480 0 0 160 0 160 -160 0
-160 0 0 480 0 480 1440 0 1440 0 0 -320z m-1280 -1600 l0 -320 -800 0 -800 0
0 320 0 320 800 0 800 0 0 -320z m960 -160 l0 -480 320 0 320 0 0 -320 0 -320
-320 0 -320 0 0 -160 0 -160 -320 0 -320 0 0 160 0 160 -960 0 -960 0 0 320 0
320 960 0 960 0 0 480 0 480 320 0 320 0 0 -480z m-2240 -1760 l0 -320 160 0
160 0 0 160 0 160 160 0 160 0 0 160 0 160 320 0 320 0 0 -160 0 -160 160 0
160 0 0 -320 0 -320 -160 0 -160 0 0 320 0 320 -160 0 -160 0 0 -160 0 -160
-160 0 -160 0 0 -160 0 -160 -320 0 -320 0 0 160 0 160 -160 0 -160 0 0 320 0
320 160 0 160 0 0 -320z m-2240 -2880 l0 -1920 -160 0 -160 0 0 -160 0 -160
-160 0 -160 0 0 -160 0 -160 -160 0 -160 0 0 -160 0 -160 -960 0 -960 0 0 160
0 160 -160 0 -160 0 0 160 0 160 -160 0 -160 0 0 160 0 160 -160 0 -160 0 0
640 0 640 480 0 480 0 0 -320 0 -320 160 0 160 0 0 -160 0 -160 480 0 480 0 0
160 0 160 160 0 160 0 0 1600 0 1600 640 0 640 0 0 -1920z m4160 1760 l0 -160
160 0 160 0 0 -320 0 -320 -320 0 -320 0 0 160 0 160 -800 0 -800 0 0 -160 0
-160 -160 0 -160 0 0 -480 0 -480 160 0 160 0 0 -160 0 -160 800 0 800 0 0
-160 0 -160 160 0 160 0 0 -160 0 -160 160 0 160 0 0 -640 0 -640 -160 0 -160
0 0 -160 0 -160 -160 0 -160 0 0 -160 0 -160 -1440 0 -1440 0 0 160 0 160
-160 0 -160 0 0 320 0 320 320 0 320 0 0 -160 0 -160 800 0 800 0 0 160 0 160
160 0 160 0 0 320 0 320 -160 0 -160 0 0 160 0 160 -800 0 -800 0 0 160 0 160
-160 0 -160 0 0 160 0 160 -160 0 -160 0 0 800 0 800 160 0 160 0 0 160 0 160
160 0 160 0 0 160 0 160 1440 0 1440 0 0 -160z"/>
<path d="M4480 6560 l0 -480 320 0 320 0 0 480 0 480 -320 0 -320 0 0 -480z"/>
<path d="M7360 9120 l0 -160 160 0 160 0 0 160 0 160 -160 0 -160 0 0 -160z"/>
</g>
</svg>
