<?xml version="1.0" standalone="no"?>
<!DOCTYPE svg PUBLIC "-//W3C//DTD SVG 20010904//EN"
 "http://www.w3.org/TR/2001/REC-SVG-20010904/DTD/svg10.dtd">
<svg version="1.0" xmlns="http://www.w3.org/2000/svg"
 width="1024.000000pt" height="1024.000000pt" viewBox="0 0 1024.000000 1024.000000"
 preserveAspectRatio="xMidYMid meet">
<metadata>
Created by potrace 1.16, written by Peter Selinger 2001-2019
</metadata>
<g transform="translate(0.000000,1024.000000) scale(0.100000,-0.100000)"
fill="#000000" stroke="none">
<path d="M1280 10080 l0 -160 -320 0 -320 0 0 -160 0 -160 -160 0 -160 0 0
-320 0 -320 -160 0 -160 0 0 -3840 0 -3840 160 0 160 0 0 -320 0 -320 160 0
160 0 0 -160 0 -160 320 0 320 0 0 -160 0 -160 3840 0 3840 0 0 160 0 160 320
0 320 0 0 160 0 160 160 0 160 0 0 320 0 320 160 0 160 0 0 3840 0 3840 -160
0 -160 0 0 320 0 320 -160 0 -160 0 0 160 0 160 -320 0 -320 0 0 160 0 160
-3840 0 -3840 0 0 -160z m320 -2400 l0 -1280 -320 0 -320 0 0 800 0 800 -320
0 -320 0 0 160 0 160 160 0 160 0 0 160 0 160 160 0 160 0 0 160 0 160 320 0
320 0 0 -1280z m1920 1120 l0 -160 160 0 160 0 0 -160 0 -160 -320 0 -320 0 0
160 0 160 -320 0 -320 0 0 -320 0 -320 480 0 480 0 0 -160 0 -160 160 0 160 0
0 -480 0 -480 -160 0 -160 0 0 -160 0 -160 -640 0 -640 0 0 160 0 160 -160 0
-160 0 0 960 0 960 160 0 160 0 0 160 0 160 640 0 640 0 0 -160z m1280 -480
l0 -640 480 0 480 0 0 -160 0 -160 160 0 160 0 0 -320 0 -320 -160 0 -160 0 0
-160 0 -160 -800 0 -800 0 0 1280 0 1280 320 0 320 0 0 -640z m3200 480 l0
-160 160 0 160 0 0 -320 0 -320 160 0 160 0 0 160 0 160 480 0 480 0 0 -160 0
-160 -480 0 -480 0 0 -160 0 -160 320 0 320 0 0 -160 0 -160 160 0 160 0 0
-320 0 -320 -160 0 -160 0 0 -160 0 -160 -320 0 -320 0 0 160 0 160 -160 0
-160 0 0 160 0 160 160 0 160 0 0 -160 0 -160 320 0 320 0 0 320 0 320 -320 0
-320 0 0 160 0 160 -160 0 -160 0 0 160 0 160 -160 0 -160 0 0 -800 0 -800
-320 0 -320 0 0 800 0 800 -480 0 -480 0 0 320 0 320 480 0 480 0 0 160 0 160
320 0 320 0 0 -160z m-960 -1760 l0 -640 -320 0 -320 0 0 640 0 640 320 0 320
0 0 -640z m-2240 -3200 l0 -2240 -160 0 -160 0 0 -160 0 -160 -160 0 -160 0 0
-160 0 -160 -640 0 -640 0 0 160 0 160 -160 0 -160 0 0 160 0 160 -160 0 -160
0 0 480 0 480 320 0 320 0 0 -160 0 -160 160 0 160 0 0 -160 0 -160 320 0 320
0 0 160 0 160 160 0 160 0 0 1920 0 1920 320 0 320 0 0 -2240z m3520 2080 l0
-160 160 0 160 0 0 -320 0 -320 -320 0 -320 0 0 160 0 160 -800 0 -800 0 0
-160 0 -160 -160 0 -160 0 0 -640 0 -640 160 0 160 0 0 -160 0 -160 800 0 800
0 0 -160 0 -160 160 0 160 0 0 -160 0 -160 160 0 160 0 0 -640 0 -640 -160 0
-160 0 0 -160 0 -160 -160 0 -160 0 0 -160 0 -160 -1120 0 -1120 0 0 160 0
160 -160 0 -160 0 0 320 0 320 320 0 320 0 0 -160 0 -160 800 0 800 0 0 160 0
160 160 0 160 0 0 320 0 320 -160 0 -160 0 0 160 0 160 -800 0 -800 0 0 160 0
160 -160 0 -160 0 0 160 0 160 -160 0 -160 0 0 960 0 960 160 0 160 0 0 160 0
160 160 0 160 0 0 160 0 160 1120 0 1120 0 0 -160z"/>
<path d="M2560 7200 l0 -480 320 0 320 0 0 480 0 480 -320 0 -320 0 0 -480z"/>
<path d="M4800 7040 l0 -320 320 0 320 0 0 320 0 320 -320 0 -320 0 0 -320z"/>
</g>
</svg>
